<mxfile host="app.diagrams.net" modified="2023-11-19T01:50:54.451Z" agent="Mozilla/5.0 (Macintosh; Intel Mac OS X 10_15_7) AppleWebKit/537.36 (KHTML, like Gecko) Chrome/119.0.0.0 Safari/537.36" etag="zU1K1OCJFKucoBR6Td15" version="22.1.3" type="device">
  <diagram name="Page-1" id="LJUdseIjMtm1UG_ifeUm">
    <mxGraphModel dx="1336" dy="1164" grid="1" gridSize="10" guides="1" tooltips="1" connect="1" arrows="1" fold="1" page="1" pageScale="1" pageWidth="850" pageHeight="1100" math="0" shadow="0">
      <root>
        <mxCell id="0" />
        <mxCell id="1" parent="0" />
        <mxCell id="ImbhiNCG4g-Rsj-b7vpq-3" style="rounded=0;orthogonalLoop=1;jettySize=auto;html=1;exitX=1;exitY=0.3333333333333333;exitDx=0;exitDy=0;exitPerimeter=0;entryX=0;entryY=0.5;entryDx=0;entryDy=0;" edge="1" parent="1" source="ImbhiNCG4g-Rsj-b7vpq-1" target="ImbhiNCG4g-Rsj-b7vpq-2">
          <mxGeometry relative="1" as="geometry" />
        </mxCell>
        <mxCell id="ImbhiNCG4g-Rsj-b7vpq-4" value="Selects &quot;My Posts&quot;" style="edgeLabel;html=1;align=center;verticalAlign=middle;resizable=0;points=[];" vertex="1" connectable="0" parent="ImbhiNCG4g-Rsj-b7vpq-3">
          <mxGeometry x="0.1216" y="-3" relative="1" as="geometry">
            <mxPoint as="offset" />
          </mxGeometry>
        </mxCell>
        <mxCell id="ImbhiNCG4g-Rsj-b7vpq-5" style="rounded=0;orthogonalLoop=1;jettySize=auto;html=1;exitX=1;exitY=0.3333333333333333;exitDx=0;exitDy=0;exitPerimeter=0;entryX=0;entryY=1;entryDx=0;entryDy=0;" edge="1" parent="1" source="ImbhiNCG4g-Rsj-b7vpq-1" target="ImbhiNCG4g-Rsj-b7vpq-2">
          <mxGeometry relative="1" as="geometry">
            <Array as="points">
              <mxPoint x="350" y="400" />
            </Array>
          </mxGeometry>
        </mxCell>
        <mxCell id="ImbhiNCG4g-Rsj-b7vpq-6" value="Selects post user wants to update" style="edgeLabel;html=1;align=center;verticalAlign=middle;resizable=0;points=[];" vertex="1" connectable="0" parent="ImbhiNCG4g-Rsj-b7vpq-5">
          <mxGeometry x="-0.5154" y="-8" relative="1" as="geometry">
            <mxPoint x="71" y="-41" as="offset" />
          </mxGeometry>
        </mxCell>
        <mxCell id="ImbhiNCG4g-Rsj-b7vpq-7" style="edgeStyle=orthogonalEdgeStyle;rounded=0;orthogonalLoop=1;jettySize=auto;html=1;exitX=1;exitY=0.3333333333333333;exitDx=0;exitDy=0;exitPerimeter=0;entryX=0.5;entryY=1;entryDx=0;entryDy=0;" edge="1" parent="1" source="ImbhiNCG4g-Rsj-b7vpq-1" target="ImbhiNCG4g-Rsj-b7vpq-2">
          <mxGeometry relative="1" as="geometry" />
        </mxCell>
        <mxCell id="ImbhiNCG4g-Rsj-b7vpq-8" value="Edits content of post" style="edgeLabel;html=1;align=center;verticalAlign=middle;resizable=0;points=[];" vertex="1" connectable="0" parent="ImbhiNCG4g-Rsj-b7vpq-7">
          <mxGeometry x="-0.3359" y="-4" relative="1" as="geometry">
            <mxPoint as="offset" />
          </mxGeometry>
        </mxCell>
        <mxCell id="ImbhiNCG4g-Rsj-b7vpq-9" style="edgeStyle=orthogonalEdgeStyle;rounded=0;orthogonalLoop=1;jettySize=auto;html=1;exitX=1;exitY=0.3333333333333333;exitDx=0;exitDy=0;exitPerimeter=0;entryX=1;entryY=1;entryDx=0;entryDy=0;" edge="1" parent="1" source="ImbhiNCG4g-Rsj-b7vpq-1" target="ImbhiNCG4g-Rsj-b7vpq-2">
          <mxGeometry relative="1" as="geometry">
            <Array as="points">
              <mxPoint x="175" y="500" />
              <mxPoint x="522" y="500" />
            </Array>
          </mxGeometry>
        </mxCell>
        <mxCell id="ImbhiNCG4g-Rsj-b7vpq-10" value="Save changes" style="edgeLabel;html=1;align=center;verticalAlign=middle;resizable=0;points=[];" vertex="1" connectable="0" parent="ImbhiNCG4g-Rsj-b7vpq-9">
          <mxGeometry x="-0.3323" y="-3" relative="1" as="geometry">
            <mxPoint x="-1" as="offset" />
          </mxGeometry>
        </mxCell>
        <mxCell id="ImbhiNCG4g-Rsj-b7vpq-1" value="Registered User" style="shape=umlActor;verticalLabelPosition=bottom;verticalAlign=top;html=1;outlineConnect=0;" vertex="1" parent="1">
          <mxGeometry x="115" y="430" width="60" height="120" as="geometry" />
        </mxCell>
        <mxCell id="ImbhiNCG4g-Rsj-b7vpq-13" style="edgeStyle=orthogonalEdgeStyle;rounded=0;orthogonalLoop=1;jettySize=auto;html=1;exitX=1;exitY=0.5;exitDx=0;exitDy=0;" edge="1" parent="1" source="ImbhiNCG4g-Rsj-b7vpq-2" target="ImbhiNCG4g-Rsj-b7vpq-12">
          <mxGeometry relative="1" as="geometry" />
        </mxCell>
        <mxCell id="ImbhiNCG4g-Rsj-b7vpq-14" value="Updated Post" style="edgeLabel;html=1;align=center;verticalAlign=middle;resizable=0;points=[];" vertex="1" connectable="0" parent="ImbhiNCG4g-Rsj-b7vpq-13">
          <mxGeometry x="-0.4624" y="-1" relative="1" as="geometry">
            <mxPoint x="1" y="-1" as="offset" />
          </mxGeometry>
        </mxCell>
        <mxCell id="ImbhiNCG4g-Rsj-b7vpq-2" value="Update Post" style="ellipse;whiteSpace=wrap;html=1;" vertex="1" parent="1">
          <mxGeometry x="420" y="130" width="120" height="80" as="geometry" />
        </mxCell>
        <mxCell id="ImbhiNCG4g-Rsj-b7vpq-11" value="D1" style="html=1;dashed=0;whiteSpace=wrap;shape=mxgraph.dfd.dataStoreID;align=left;spacingLeft=3;points=[[0,0],[0.5,0],[1,0],[0,0.5],[1,0.5],[0,1],[0.5,1],[1,1]];" vertex="1" parent="1">
          <mxGeometry x="635" y="270" width="100" height="30" as="geometry" />
        </mxCell>
        <mxCell id="ImbhiNCG4g-Rsj-b7vpq-12" value="Posts" style="text;html=1;align=center;verticalAlign=middle;resizable=0;points=[];autosize=1;strokeColor=none;fillColor=none;" vertex="1" parent="1">
          <mxGeometry x="675" y="270" width="50" height="30" as="geometry" />
        </mxCell>
      </root>
    </mxGraphModel>
  </diagram>
</mxfile>
